<svg xmlns="http://www.w3.org/2000/svg" xmlns:xlink="http://www.w3.org/1999/xlink" width="500" zoomAndPan="magnify" viewBox="0 0 375 374.999991" height="500" preserveAspectRatio="xMidYMid meet" version="1.0"><defs><g/><clipPath id="5ed3faa801"><path d="M 84 107 L 220 107 L 220 257 L 84 257 Z M 84 107 " clip-rule="nonzero"/></clipPath><clipPath id="2ba4829006"><path d="M 91.5 99.636719 L 303.332031 128.21875 L 283.472656 275.386719 L 71.644531 246.804688 Z M 91.5 99.636719 " clip-rule="nonzero"/></clipPath><clipPath id="3b487f2fbb"><path d="M 91.5 99.636719 L 303.332031 128.21875 L 283.472656 275.386719 L 71.644531 246.804688 Z M 91.5 99.636719 " clip-rule="nonzero"/></clipPath><clipPath id="112b6bdb01"><path d="M 121 121 L 297 121 L 297 263 L 121 263 Z M 121 121 " clip-rule="nonzero"/></clipPath><clipPath id="a5d4c566fb"><path d="M 91.5 99.636719 L 303.332031 128.21875 L 283.472656 275.386719 L 71.644531 246.804688 Z M 91.5 99.636719 " clip-rule="nonzero"/></clipPath><clipPath id="2be3e900dc"><path d="M 91.5 99.636719 L 303.332031 128.21875 L 283.472656 275.386719 L 71.644531 246.804688 Z M 91.5 99.636719 " clip-rule="nonzero"/></clipPath></defs><g clip-path="url(#5ed3faa801)"><g clip-path="url(#2ba4829006)"><g clip-path="url(#3b487f2fbb)"><path fill="#ff1616" d="M 179.824219 240.695312 C 178.707031 240.382812 177.582031 240.132812 176.457031 239.847656 L 174.773438 239.433594 L 173.078125 239.066406 L 169.671875 238.347656 L 166.238281 237.753906 L 164.523438 237.464844 L 162.800781 237.226562 L 159.339844 236.753906 L 155.867188 236.398438 L 154.125 236.21875 L 152.367188 236.105469 C 147.667969 235.808594 142.957031 235.792969 138.285156 236.082031 C 131.648438 236.472656 125.074219 237.347656 118.609375 238.601562 C 119.566406 234.707031 120.296875 230.726562 120.769531 226.714844 C 124.15625 225.957031 127.691406 225.351562 131.21875 224.84375 C 135.511719 224.230469 139.84375 223.75 144.171875 223.410156 C 148.503906 223.074219 152.847656 222.875 157.164062 222.917969 C 159.324219 222.941406 161.460938 223.023438 163.613281 223.179688 C 165.769531 223.308594 167.921875 223.542969 170.074219 223.796875 C 187.273438 225.949219 204.085938 232.160156 218.949219 241.65625 L 219.269531 241.203125 C 212.183594 235.875 204.503906 231.292969 196.367188 227.582031 C 188.238281 223.878906 179.65625 221.0625 170.820312 219.253906 C 168.613281 218.816406 166.390625 218.40625 164.152344 218.097656 C 161.914062 217.765625 159.636719 217.5625 157.390625 217.382812 C 152.875 217.054688 148.378906 216.980469 143.886719 217.046875 C 139.394531 217.113281 134.910156 217.332031 130.425781 217.6875 C 127.421875 217.9375 124.441406 218.226562 121.414062 218.648438 C 121.589844 214.382812 121.511719 210.109375 121.152344 205.882812 C 120.609375 199.167969 119.671875 192.488281 118.292969 185.921875 C 117.605469 182.636719 116.792969 179.382812 115.820312 176.175781 C 114.851562 172.972656 113.75 169.816406 112.382812 166.78125 C 113.15625 170.015625 113.722656 173.265625 114.140625 176.535156 C 114.554688 179.804688 114.832031 183.085938 115.019531 186.359375 C 115.273438 191.066406 115.332031 195.761719 115.222656 200.449219 C 111.988281 197.335938 109.011719 193.960938 106.371094 190.398438 C 104.382812 187.710938 102.613281 184.898438 101.125 182.019531 C 100.382812 180.578125 99.71875 179.121094 99.167969 177.652344 C 99.03125 177.285156 98.886719 176.917969 98.769531 176.550781 C 98.640625 176.191406 98.519531 175.816406 98.402344 175.417969 L 98.046875 174.253906 L 97.730469 173.078125 C 96.074219 166.796875 95.5 160.230469 96.089844 153.804688 C 96.363281 150.59375 96.945312 147.394531 97.761719 144.332031 C 98.605469 141.277344 99.746094 138.339844 101.1875 135.640625 C 102.632812 132.945312 104.351562 130.476562 106.375 128.429688 C 107.382812 127.402344 108.460938 126.480469 109.605469 125.667969 C 110.164062 125.277344 110.789062 124.863281 111.429688 124.488281 C 112.066406 124.113281 112.714844 123.75 113.382812 123.417969 C 116.035156 122.058594 118.902344 121.171875 121.78125 120.464844 C 124.660156 119.761719 127.609375 119.207031 130.625 119.113281 C 132.136719 119.0625 133.632812 119.15625 135.152344 119.375 C 136.8125 119.652344 138.480469 119.988281 140.132812 120.378906 C 143.441406 121.175781 146.738281 122.15625 149.945312 123.398438 C 153.167969 124.605469 156.3125 126.074219 159.289062 127.875 C 162.285156 129.652344 165.097656 131.78125 167.609375 134.359375 L 167.753906 134.253906 C 166.925781 132.644531 165.933594 131.105469 164.832031 129.640625 C 163.730469 128.167969 162.527344 126.757812 161.222656 125.445312 C 158.617188 122.8125 155.722656 120.441406 152.652344 118.308594 C 149.5625 116.207031 146.316406 114.308594 142.925781 112.679688 C 141.230469 111.863281 139.5 111.089844 137.738281 110.378906 C 135.828125 109.625 133.824219 109.003906 131.792969 108.582031 C 127.722656 107.699219 123.464844 107.523438 119.359375 108.214844 C 115.246094 108.886719 111.320312 110.378906 107.644531 112.292969 C 106.726562 112.773438 105.824219 113.292969 104.941406 113.847656 C 104.054688 114.390625 103.199219 114.976562 102.3125 115.621094 C 100.570312 116.910156 98.964844 118.347656 97.503906 119.886719 C 94.585938 122.980469 92.242188 126.464844 90.4375 130.105469 C 88.601562 133.742188 87.277344 137.542969 86.339844 141.386719 C 85.445312 145.246094 84.851562 149.101562 84.660156 153.011719 C 84.484375 156.910156 84.609375 160.816406 85.125 164.671875 C 85.625 168.527344 86.433594 172.34375 87.640625 176.03125 L 88.09375 177.414062 L 88.589844 178.785156 C 88.910156 179.683594 89.308594 180.652344 89.699219 181.554688 C 90.503906 183.386719 91.410156 185.136719 92.386719 186.816406 C 94.347656 190.179688 96.605469 193.273438 99.03125 196.183594 C 101.457031 199.09375 104.082031 201.792969 106.867188 204.308594 C 109.328125 206.542969 111.9375 208.605469 114.671875 210.511719 C 114.511719 212.199219 114.320312 213.875 114.078125 215.554688 C 113.636719 218.722656 113 221.859375 112.289062 224.972656 C 111.933594 226.53125 111.535156 228.078125 111.152344 229.628906 L 109.910156 234.261719 L 107.246094 243.5625 L 107.246094 243.566406 L 105.089844 251.261719 L 112.863281 249.613281 C 117.246094 248.6875 121.585938 247.773438 125.945312 246.96875 C 128.128906 246.578125 130.300781 246.199219 132.484375 245.867188 C 133.578125 245.695312 134.667969 245.539062 135.761719 245.398438 C 136.851562 245.238281 137.941406 245.113281 139.035156 244.972656 C 140.125 244.839844 141.21875 244.742188 142.3125 244.621094 L 145.59375 244.355469 C 147.78125 244.199219 149.972656 244.074219 152.15625 244.054688 L 153.796875 244.027344 L 155.460938 244.042969 L 158.785156 244.078125 L 162.105469 244.222656 L 163.769531 244.296875 L 165.433594 244.417969 C 169.867188 244.707031 174.292969 245.246094 178.714844 245.90625 C 183.128906 246.601562 187.523438 247.464844 191.890625 248.515625 C 200.636719 250.601562 209.246094 253.4375 217.675781 256.882812 C 209.898438 252.144531 201.625 248.109375 192.996094 244.90625 C 188.675781 243.324219 184.292969 241.871094 179.824219 240.695312 Z M 179.824219 240.695312 " fill-opacity="1" fill-rule="nonzero"/></g></g></g><g clip-path="url(#112b6bdb01)"><g clip-path="url(#a5d4c566fb)"><g clip-path="url(#2be3e900dc)"><path fill="#ff1616" d="M 296.679688 173.882812 C 296.757812 170.511719 296.585938 167.160156 296.210938 163.835938 C 295.832031 160.503906 295.222656 157.148438 294.277344 153.8125 C 293.320312 150.476562 292.046875 147.183594 290.339844 143.992188 C 288.628906 140.753906 286.402344 137.742188 283.835938 135.078125 C 281.25 132.433594 278.3125 130.160156 275.1875 128.324219 C 268.910156 124.664062 262.03125 122.691406 255.257812 121.828125 C 251.867188 121.382812 248.441406 121.261719 245.140625 121.296875 C 241.820312 121.339844 238.511719 121.585938 235.246094 122.007812 C 228.707031 122.832031 222.320312 124.332031 216.164062 126.355469 C 213.085938 127.359375 210.054688 128.480469 207.089844 129.722656 C 204.128906 130.972656 201.21875 132.324219 198.414062 133.710938 C 195.601562 135.085938 192.863281 136.523438 190.179688 137.933594 C 187.496094 139.339844 184.847656 140.714844 182.210938 142 C 180.894531 142.65625 179.585938 143.28125 178.277344 143.894531 L 174.167969 145.761719 C 171.460938 146.980469 168.777344 148.109375 166.121094 149.109375 C 160.824219 151.125 155.496094 152.515625 150.683594 152.261719 C 145.785156 152.0625 140.832031 150.332031 136.109375 147.378906 C 133.738281 145.921875 131.433594 144.183594 129.183594 142.257812 C 126.921875 140.335938 124.738281 138.21875 122.480469 136.011719 L 121.992188 136.285156 C 122.734375 139.382812 123.929688 142.363281 125.460938 145.214844 C 127 148.058594 128.902344 150.769531 131.207031 153.234375 C 133.519531 155.671875 136.230469 157.886719 139.34375 159.582031 C 140.125 160 140.914062 160.40625 141.738281 160.773438 C 142.558594 161.128906 143.394531 161.453125 144.25 161.742188 C 145.960938 162.335938 147.738281 162.746094 149.542969 163.015625 C 151.339844 163.285156 153.195312 163.390625 154.972656 163.335938 C 156.761719 163.289062 158.507812 163.140625 160.210938 162.890625 C 163.613281 162.402344 166.855469 161.605469 169.980469 160.679688 C 173.105469 159.757812 176.101562 158.648438 179.027344 157.542969 L 183.34375 155.867188 C 184.832031 155.273438 186.316406 154.675781 187.761719 154.042969 C 190.660156 152.773438 193.476562 151.445312 196.246094 150.136719 L 204.414062 146.269531 C 207.097656 145.011719 209.75 143.859375 212.429688 142.796875 C 215.105469 141.722656 217.796875 140.734375 220.523438 139.875 C 225.96875 138.15625 231.492188 136.816406 237.050781 136.109375 C 242.585938 135.390625 248.25 135.179688 253.515625 135.8125 C 258.820312 136.4375 263.890625 137.933594 268.175781 140.390625 C 270.324219 141.613281 272.261719 143.089844 273.964844 144.777344 C 275.644531 146.488281 277.109375 148.394531 278.273438 150.539062 C 279.472656 152.710938 280.449219 155.121094 281.203125 157.632812 C 281.972656 160.144531 282.527344 162.792969 282.902344 165.511719 C 283.269531 168.234375 283.472656 170.988281 283.480469 173.710938 C 283.476562 176.4375 283.261719 179.136719 282.859375 181.777344 C 282.441406 184.414062 281.804688 186.984375 280.929688 189.453125 C 280.03125 191.90625 278.929688 194.246094 277.523438 196.476562 C 274.765625 200.949219 271.039062 204.96875 266.707031 208.273438 C 264.519531 209.929688 262.1875 211.476562 259.761719 212.828125 C 257.332031 214.191406 254.789062 215.355469 252.167969 216.382812 C 249.546875 217.40625 246.84375 218.261719 244.082031 218.957031 C 242.78125 219.292969 241.476562 219.589844 240.152344 219.851562 C 240.207031 219.417969 240.273438 218.992188 240.328125 218.558594 C 240.453125 217.621094 240.546875 216.6875 240.640625 215.746094 C 240.742188 214.808594 240.835938 213.867188 240.890625 212.921875 L 240.988281 211.5 L 241.035156 210.792969 L 241.039062 209.867188 C 241.007812 208.664062 240.863281 207.535156 240.640625 206.4375 C 240.199219 204.242188 239.5 202.179688 238.4375 200.144531 C 237.910156 199.125 237.285156 198.117188 236.472656 197.105469 C 236.257812 196.851562 236.058594 196.601562 235.820312 196.347656 C 235.570312 196.089844 235.316406 195.832031 235.054688 195.585938 C 234.785156 195.351562 234.511719 195.121094 234.234375 194.898438 C 233.953125 194.683594 233.664062 194.488281 233.378906 194.285156 C 231.03125 192.742188 228.578125 192.054688 226.363281 191.667969 C 224.136719 191.3125 222.03125 191.253906 220.140625 191.25 C 216.296875 191.238281 212.5 191.453125 208.761719 191.835938 C 201.28125 192.582031 194.046875 193.890625 186.894531 194.886719 C 185.105469 195.136719 183.320312 195.375 181.539062 195.570312 C 179.742188 195.785156 178.015625 195.90625 176.242188 196.0625 C 172.722656 196.28125 169.191406 196.28125 165.660156 196.105469 C 162.132812 195.886719 158.617188 195.4375 155.136719 194.757812 C 151.65625 194.054688 148.230469 193.066406 144.859375 191.863281 C 141.496094 190.636719 138.238281 189.09375 135.042969 187.375 C 131.875 185.609375 128.835938 183.589844 125.867188 181.410156 C 128.398438 184.074219 131.105469 186.609375 134.0625 188.871094 C 137.027344 191.117188 140.183594 193.148438 143.511719 194.902344 C 146.855469 196.621094 150.347656 198.078125 153.945312 199.28125 C 157.558594 200.417969 161.257812 201.289062 165.007812 201.9375 C 168.765625 202.519531 172.554688 202.847656 176.359375 202.972656 L 179.210938 203 C 180.164062 203.019531 181.105469 203 182.039062 202.972656 C 183.910156 202.929688 185.777344 202.847656 187.636719 202.753906 C 195.066406 202.378906 202.355469 201.710938 209.484375 201.355469 C 213.050781 201.183594 216.570312 201.066406 220.058594 201.121094 C 220.941406 201.121094 221.777344 201.136719 222.558594 201.179688 C 223.347656 201.222656 224.097656 201.300781 224.785156 201.414062 C 226.171875 201.621094 227.3125 201.992188 228.046875 202.453125 L 228.3125 202.628906 C 228.390625 202.695312 228.46875 202.757812 228.550781 202.816406 C 228.617188 202.890625 228.6875 202.953125 228.761719 203.015625 L 229.019531 203.285156 C 229.375 203.6875 229.753906 204.222656 230.121094 204.800781 C 230.84375 205.960938 231.5 207.332031 231.980469 208.683594 C 232.222656 209.359375 232.425781 210.035156 232.566406 210.65625 C 232.59375 210.804688 232.621094 210.953125 232.660156 211.101562 L 232.746094 211.769531 L 232.914062 213.097656 C 233.03125 213.984375 233.132812 214.875 233.230469 215.761719 C 233.332031 216.652344 233.4375 217.546875 233.507812 218.445312 C 233.867188 222.03125 234.011719 225.652344 233.980469 229.277344 C 233.933594 232.898438 233.769531 236.535156 233.53125 240.175781 C 233.046875 247.453125 232.175781 254.738281 231.179688 262.007812 L 231.726562 262.117188 C 233.511719 254.996094 235.265625 247.859375 236.753906 240.621094 C 237.496094 237.03125 238.152344 233.414062 238.722656 229.769531 C 241.222656 229.535156 243.71875 229.207031 246.210938 228.753906 C 249.402344 228.160156 252.582031 227.363281 255.707031 226.359375 C 261.960938 224.335938 267.976562 221.398438 273.480469 217.609375 C 279.007812 213.761719 283.988281 208.953125 287.875 203.195312 C 289.824219 200.332031 291.453125 197.183594 292.753906 193.953125 C 294.03125 190.714844 294.980469 187.375 295.632812 184.011719 C 296.273438 180.644531 296.589844 177.253906 296.679688 173.882812 Z M 296.679688 173.882812 " fill-opacity="1" fill-rule="nonzero"/></g></g></g><g fill="#000000" fill-opacity="1"><g transform="translate(187.499992, 201.749987)"><g/></g></g></svg>